PathFileType	4	(X/Y/Z)	Walk8.trc
DataRate	CameraRate	NumFrames	NumMarkers	Units	OrigDataRate	OrigDataStartFrame	OrigNumFrames
200.000000	200.000000	6	55	mm	200.000000	635	935
Frame#	Times		LToe		LWRR		C7		RTH2		LACR1		RBHD		LElbow		LUA1		RMT1		LCAR		RCAR		RToe		LWRU		RTB2		LMMAL		RTB3		LTH3		RFA1		RTB4		RMT5		LMT5		RTB1		RMFC		RElbow		LTH4		RElbowM		RMMAL		RLFC		RCAL		LTB2		LPSI		LLFC		RPSI		RTH3		LTH2		T10		LASI		LCAL		LBHD		RBack		RASI		RFHD		LFHD		RACR1		LMT1		RLMAL		LLMAL		RUA1		RWRR		LTB1		LMFC		LTH1		LTB3		LTB4		RTH4
			X1	Y1	Z1	X2	Y2	Z2	X3	Y3	Z3	X4	Y4	Z4	X5	Y5	Z5	X6	Y6	Z6	X7	Y7	Z7	X8	Y8	Z8	X9	Y9	Z9	X10	Y10	Z10	X11	Y11	Z11	X12	Y12	Z12	X13	Y13	Z13	X14	Y14	Z14	X15	Y15	Z15	X16	Y16	Z16	X17	Y17	Z17	X18	Y18	Z18	X19	Y19	Z19	X20	Y20	Z20	X21	Y21	Z21	X22	Y22	Z22	X23	Y23	Z23	X24	Y24	Z24	X25	Y25	Z25	X26	Y26	Z26	X27	Y27	Z27	X28	Y28	Z28	X29	Y29	Z29	X30	Y30	Z30	X31	Y31	Z31	X32	Y32	Z32	X33	Y33	Z33	X34	Y34	Z34	X35	Y35	Z35	X36	Y36	Z36	X37	Y37	Z37	X38	Y38	Z38	X39	Y39	Z39	X40	Y40	Z40	X41	Y41	Z41	X42	Y42	Z42	X43	Y43	Z43	X44	Y44	Z44	X45	Y45	Z45	X46	Y46	Z46	X47	Y47	Z47	X48	Y48	Z48	X49	Y49	Z49	X50	Y50	Z50	X51	Y51	Z51	X52	Y52	Z52	X53	Y53	Z53	X54	Y54	Z54	X55	Y55	Z55

635	3.175	-132.58	42.047	-72.456	-423.94	793.18	-318.78	-455.96	1474.6	-49.305	-314.64	655.38	97.159	-356.34	1406.9	-213.4	-425.86	1603.4	-113.89	-448.94	1073.5	-320.41	-395.41	1203.4	-284.45	-619.54	64.949	16.99	-451.52	933.11	-326.19	-354.32	796.95	248.33	-577.07	61.045	57.542	-355.78	767.45	-301.35	-495.19	321.32	96.201	-313.86	69.541	-32.579	-556.97	263.03	17.108	-320.22	579.89	-163.56	-444.23	933.61	249.48	-485.54	314	21.947	-646.97	90.952	89.983	-217.19	23.282	-136.53	-408.18	372.48	28.635	-380.29	480.05	-14.927	-476.63	1092.7	244.52	-335.33	671.28	-186.16	-509.21	1095.4	165.68	-664.25	187.75	-10.853	-367.56	504.63	112.81	-751.37	215.56	0.20393	-281.01	302.58	-134.71	-543.47	1034.8	-86.004	-317.89	518.39	-153.47	-553.27	1034.3	-17.406	-368.06	549.63	116.21	-276.44	687.06	-144.91	-531.3	1218.5	-44.126	-339.78	1025.7	-185.95	-398.17	33.957	-67.145	-425.14	1601.2	22.904	-480.61	1369.6	107.15	-373.18	987.24	116.72	-249.79	1643.1	-83.785	-249.74	1643.2	-9.0725	-349.53	1423.3	111.81	-181.52	30.429	-53.628	-692.6	207.42	64.179	-333.99	59.34	-115.11	-394.77	1247.9	200.73	-347.4	843.56	200.29	-269.4	395.77	-65.258	-340.25	495.64	-29.553	-351.21	761.27	-205.42	-288.46	211.57	-62.85	-281.19	303.7	-62.644	-378.39	642.57	131.8
636	3.18	-132.2	41.362	-72.506	-415.04	793.27	-319.22	-451.62	1475.1	-49.803	-307	657.29	97.045	-351.85	1407.3	-213.79	-421.48	1604	-114.12	-442.45	1073.4	-321	-389.81	1203.6	-284.91	-608.73	66.876	17.738	-443.83	932.94	-326.73	-351.01	797.03	247.79	-566.19	63.392	58.342	-346.57	768.29	-301.88	-485.65	322.9	96.161	-313.75	69.516	-32.457	-547.32	264.45	17.119	-316.83	579.89	-163.62	-440.8	933.88	248.78	-475.91	315.5	21.903	-636.44	93.032	90.56	-217.09	23.163	-136.67	-398.68	374.08	28.607	-371.16	481.62	-15.052	-472.96	1093	243.71	-331.77	671.28	-186.32	-505.34	1095.7	164.81	-654.48	188.94	-10.874	-358.5	506.16	112.74	-741.87	216.11	0.063265	-279.53	302.23	-134.8	-538.99	1035.1	-86.392	-315.03	518.26	-153.59	-548.7	1034.6	-17.795	-359.44	551.04	116.11	-272.86	687	-145	-526.88	1218.9	-44.724	-335.43	1026.1	-186.4	-398.17	33.987	-67.139	-420.79	1601.6	22.677	-476.61	1369.9	106.47	-368.53	987.75	116.66	-245.4	1643.6	-83.934	-245.37	1643.6	-9.2183	-345.55	1423.7	111.54	-181.37	30.248	-53.487	-682.95	208.77	64.165	-333.92	59.341	-115.03	-391.06	1248.3	200.25	-344	843.69	199.77	-267.26	395.42	-65.411	-337.76	495.66	-29.924	-347.52	761.3	-205.64	-287.51	211.31	-62.849	-279.61	303.4	-62.733	-370.7	643.89	131.63
637	3.185	-131.84	40.706	-72.561	-406.1	793.41	-319.64	-447.3	1475.5	-50.286	-299.45	659.26	96.893	-347.38	1407.8	-214.17	-417.11	1604.5	-114.32	-435.96	1073.3	-321.59	-384.21	1203.8	-285.37	-597.53	68.618	18.539	-436.1	932.82	-327.28	-347.68	797.14	247.26	-554.93	65.582	59.231	-337.33	769.21	-302.4	-476.07	324.43	96.133	-313.65	69.496	-32.335	-537.52	265.68	17.168	-313.42	579.91	-163.65	-437.36	934.16	248.09	-466.2	316.91	21.872	-625.61	94.893	91.162	-217	23.051	-136.79	-389.15	375.67	28.623	-362.11	483.18	-15.199	-469.3	1093.3	242.9	-328.21	671.31	-186.45	-501.47	1096	163.95	-644.46	189.84	-10.916	-349.47	507.76	112.67	-732.17	216.25	-0.15362	-278.09	301.89	-134.88	-534.52	1035.4	-86.746	-312.24	518.11	-153.7	-544.14	1034.9	-18.152	-350.85	552.51	116	-269.32	686.97	-145	-522.47	1219.4	-45.321	-331.09	1026.5	-186.83	-398.18	34.017	-67.132	-416.45	1602	22.468	-472.63	1370.3	105.8	-363.89	988.28	116.61	-241.03	1644	-84.06	-241.02	1644.1	-9.3403	-341.58	1424.2	111.27	-181.25	30.088	-53.354	-673.12	209.83	64.106	-333.85	59.34	-114.94	-387.36	1248.6	199.77	-340.58	843.85	199.25	-265.17	395.08	-65.551	-335.24	495.73	-30.223	-343.83	761.35	-205.84	-286.6	211.06	-62.843	-278.08	303.09	-62.813	-363.12	645.26	131.41
638	3.19	-131.5	40.08	-72.622	-397.13	793.61	-320.04	-443	1476	-50.755	-291.97	661.3	96.711	-342.91	1408.4	-214.53	-412.76	1605.1	-114.51	-429.46	1073.2	-322.17	-378.62	1204.1	-285.82	-585.94	70.171	19.385	-428.34	932.74	-327.82	-344.34	797.3	246.76	-543.32	67.606	60.193	-328.07	770.21	-302.89	-466.47	325.9	96.116	-313.54	69.482	-32.213	-527.57	266.73	17.256	-310.03	579.94	-163.65	-433.91	934.47	247.41	-456.39	318.23	21.859	-614.48	96.527	91.784	-216.92	22.945	-136.92	-379.58	377.25	28.682	-353.14	484.75	-15.362	-465.66	1093.7	242.1	-324.65	671.35	-186.56	-497.6	1096.3	163.08	-634.21	190.47	-10.973	-340.49	509.41	112.6	-722.26	216.01	-0.43347	-276.67	301.55	-134.96	-530.05	1035.7	-87.067	-309.52	517.96	-153.8	-539.59	1035.3	-18.476	-342.32	554.04	115.89	-265.83	686.94	-144.93	-518.08	1219.8	-45.916	-326.79	1026.9	-187.24	-398.18	34.047	-67.123	-412.13	1602.5	22.277	-468.65	1370.7	105.14	-359.25	988.85	116.55	-236.68	1644.5	-84.163	-236.69	1644.5	-9.4398	-337.63	1424.6	111.02	-181.13	29.953	-53.23	-663.11	210.59	64.011	-333.78	59.338	-114.86	-383.68	1249	199.31	-337.14	844.03	198.75	-263.14	394.74	-65.678	-332.69	495.85	-30.441	-340.13	761.4	-206.02	-285.72	210.81	-62.834	-276.59	302.78	-62.887	-355.65	646.67	131.15
639	3.195	-131.18	39.485	-72.69	-388.14	793.86	-320.43	-438.71	1476.5	-51.21	-284.58	663.38	96.51	-338.46	1408.9	-214.87	-408.42	1605.6	-114.68	-422.94	1073.2	-322.75	-373.03	1204.4	-286.26	-574	71.531	20.266	-420.56	932.71	-328.36	-340.99	797.49	246.28	-531.36	69.458	61.208	-318.78	771.27	-303.36	-456.83	327.3	96.112	-313.44	69.47	-32.096	-517.47	267.58	17.381	-306.69	579.98	-163.65	-430.44	934.8	246.74	-446.51	319.45	21.865	-603.06	97.928	92.419	-216.84	22.847	-137.03	-370	378.81	28.781	-344.26	486.3	-15.534	-462.03	1094	241.31	-321.13	671.39	-186.66	-493.74	1096.7	162.21	-623.73	190.82	-11.037	-331.56	511.1	112.53	-712.15	215.39	-0.76204	-275.29	301.21	-135.03	-525.59	1036	-87.354	-306.89	517.8	-153.89	-535.05	1035.6	-18.766	-333.84	555.62	115.79	-262.38	686.91	-144.83	-513.7	1220.2	-46.509	-322.5	1027.3	-187.63	-398.18	34.076	-67.111	-407.83	1602.9	22.102	-464.68	1371	104.5	-354.61	989.44	116.47	-232.33	1645	-84.244	-232.37	1644.9	-9.5181	-333.69	1425	110.76	-181.03	29.846	-53.114	-652.92	211.06	63.885	-333.71	59.333	-114.77	-379.99	1249.3	198.84	-333.68	844.25	198.26	-261.18	394.42	-65.794	-330.12	496	-30.578	-336.42	761.46	-206.18	-284.87	210.56	-62.822	-275.16	302.47	-62.955	-348.27	648.11	130.87
640	3.2	-130.88	38.92	-72.764	-379.12	794.18	-320.8	-434.43	1477	-51.652	-277.27	665.5	96.296	-334.03	1409.4	-215.2	-404.09	1606.2	-114.84	-416.42	1073.2	-323.32	-367.45	1204.8	-286.69	-561.72	72.698	21.171	-412.75	932.74	-328.9	-337.63	797.71	245.82	-519.09	71.136	62.258	-309.49	772.42	-303.81	-447.16	328.63	96.119	-313.35	69.46	-31.985	-507.25	268.25	17.537	-303.44	580.01	-163.66	-426.96	935.14	246.07	-436.55	320.57	21.893	-591.37	99.093	93.063	-216.78	22.757	-137.14	-360.39	380.35	28.918	-335.45	487.84	-15.707	-458.4	1094.4	240.53	-317.65	671.44	-186.75	-489.88	1097	161.36	-613.02	190.89	-11.103	-322.68	512.83	112.47	-701.83	214.39	-1.1247	-273.95	300.88	-135.1	-521.15	1036.4	-87.607	-304.36	517.65	-153.98	-530.52	1036	-19.025	-325.42	557.24	115.7	-258.98	686.85	-144.72	-509.33	1220.6	-47.099	-318.23	1027.6	-187.99	-398.18	34.104	-67.096	-403.54	1603.3	21.942	-460.71	1371.4	103.88	-349.97	990.06	116.36	-228	1645.5	-84.305	-228.07	1645.4	-9.5764	-329.76	1425.5	110.52	-180.95	29.766	-53.007	-642.55	211.22	63.736	-333.64	59.325	-114.68	-376.31	1249.7	198.39	-330.21	844.49	197.78	-259.29	394.1	-65.899	-327.53	496.19	-30.631	-332.72	761.53	-206.33	-284.05	210.31	-62.807	-273.76	302.17	-63.019	-340.96	649.59	130.58
